<svg width="18" height="18" viewBox="0 0 18 18" fill="none" xmlns="http://www.w3.org/2000/svg">
<g id="Icon/Liked">
<g id="Vector">
<path d="M2 2.66667C2 2.29848 2.29848 2 2.66667 2H15.3333C15.7015 2 16 2.29848 16 2.66667V15.3333C16 15.7015 15.7015 16 15.3333 16H2.66667C2.29848 16 2 15.7015 2 15.3333V2.66667Z" fill="url(#paint0_linear_104_140)"/>
<path d="M10.8182 5.5C10.0545 5.5 9.38182 5.90833 9 6.55C8.61818 5.90833 7.94546 5.5 7.18182 5.5C5.98182 5.5 5 6.55 5 7.83333C5 10.1472 9 12.5 9 12.5C9 12.5 13 10.1667 13 7.83333C13 6.55 12.0182 5.5 10.8182 5.5Z" fill="#B3B3B3"/>
</g>
</g>
<defs>
<linearGradient id="paint0_linear_104_140" x1="2.33333" y1="2.33333" x2="15.3333" y2="16.3333" gradientUnits="userSpaceOnUse">
<stop stop-color="#3416A4"/>
<stop offset="1" stop-color="#899C9A"/>
</linearGradient>
</defs>
</svg>
