<svg width="18" height="18" viewBox="0 0 18 18" fill="none" xmlns="http://www.w3.org/2000/svg">
<path d="M15.1875 5.48437C15.4486 5.48437 15.699 5.38066 15.8836 5.19606C16.0682 5.01145 16.1719 4.76107 16.1719 4.5V3.375C16.1719 3.11393 16.0682 2.86355 15.8836 2.67894C15.699 2.49434 15.4486 2.39062 15.1875 2.39062H2.8125C2.55143 2.39062 2.30105 2.49434 2.11644 2.67894C1.93184 2.86355 1.82813 3.11393 1.82812 3.375V4.5C1.82812 4.76107 1.93184 5.01145 2.11644 5.19606C2.30105 5.38066 2.55143 5.48437 2.8125 5.48437H2.95312V12.5156H2.25C2.13811 12.5156 2.03081 12.5601 1.95169 12.6392C1.87257 12.7183 1.82812 12.8256 1.82812 12.9375C1.82812 13.0494 1.87257 13.1567 1.95169 13.2358C2.03081 13.3149 2.13811 13.3594 2.25 13.3594H8.57812V14.8247C8.21891 14.9265 7.90866 15.1548 7.7046 15.4675C7.50054 15.7802 7.41645 16.1561 7.46785 16.5259C7.51926 16.8957 7.70268 17.2344 7.98428 17.4796C8.26587 17.7248 8.62664 17.8598 9 17.8598C9.37336 17.8598 9.73413 17.7248 10.0157 17.4796C10.2973 17.2344 10.4807 16.8957 10.5321 16.5259C10.5835 16.1561 10.4995 15.7802 10.2954 15.4675C10.0913 15.1548 9.78109 14.9265 9.42188 14.8247V13.3594H15.75C15.8619 13.3594 15.9692 13.3149 16.0483 13.2358C16.1274 13.1567 16.1719 13.0494 16.1719 12.9375C16.1719 12.8256 16.1274 12.7183 16.0483 12.6392C15.9692 12.5601 15.8619 12.5156 15.75 12.5156H15.0469V5.48437H15.1875ZM9.70312 16.3125C9.70312 16.4516 9.66189 16.5875 9.58463 16.7031C9.50737 16.8188 9.39755 16.9089 9.26907 16.9621C9.14059 17.0153 8.99922 17.0292 8.86283 17.0021C8.72643 16.975 8.60115 16.908 8.50282 16.8097C8.40448 16.7113 8.33752 16.5861 8.31039 16.4497C8.28326 16.3133 8.29718 16.1719 8.3504 16.0434C8.40362 15.9149 8.49374 15.8051 8.60936 15.7279C8.72499 15.6506 8.86094 15.6094 9 15.6094C9.18648 15.6094 9.36532 15.6835 9.49718 15.8153C9.62905 15.9472 9.70312 16.126 9.70312 16.3125ZM2.67188 4.5V3.375C2.67188 3.3377 2.68669 3.30194 2.71306 3.27556C2.73944 3.24919 2.7752 3.23437 2.8125 3.23437H15.1875C15.2248 3.23437 15.2606 3.24919 15.2869 3.27556C15.3133 3.30194 15.3281 3.3377 15.3281 3.375V4.5C15.3281 4.5373 15.3133 4.57306 15.2869 4.59944C15.2606 4.62581 15.2248 4.64062 15.1875 4.64062H2.8125C2.7752 4.64062 2.73944 4.62581 2.71306 4.59944C2.68669 4.57306 2.67188 4.5373 2.67188 4.5ZM14.2031 12.5156H3.79688V5.48437H14.2031V12.5156Z" fill="white"/>
</svg>
