<svg width="18" height="18" viewBox="0 0 18 18" fill="none" xmlns="http://www.w3.org/2000/svg">
<path fill-rule="evenodd" clip-rule="evenodd" d="M6.50025 0.937503C5.84999 0.937021 5.21645 1.14355 4.6914 1.52717C4.16635 1.9108 3.77705 2.4516 3.57989 3.07125C3.38272 3.6909 3.38793 4.35723 3.59475 4.97373C3.80157 5.59022 4.19927 6.12488 4.73025 6.50025C4.33047 6.78304 4.00444 7.15769 3.77956 7.59268C3.55469 8.02768 3.43755 8.51032 3.438 9C3.438 10.032 3.94875 10.9455 4.73175 11.4998C4.3028 11.8034 3.95922 12.2123 3.73405 12.6872C3.50889 13.162 3.40972 13.6868 3.44609 14.2111C3.48246 14.7354 3.65315 15.2415 3.94172 15.6807C4.2303 16.1199 4.62706 16.4775 5.09382 16.719C5.56058 16.9605 6.08164 17.0778 6.60687 17.0596C7.13209 17.0414 7.64379 16.8884 8.09275 16.6152C8.54171 16.342 8.91281 15.9579 9.17035 15.4998C9.42789 15.0417 9.56319 14.525 9.56325 13.9995V11.3715C9.88183 11.6296 10.249 11.8211 10.643 11.9346C11.037 12.0482 11.4497 12.0814 11.8568 12.0324C12.2639 11.9834 12.657 11.8532 13.0128 11.6494C13.3686 11.4457 13.6798 11.1725 13.9281 10.8462C14.1763 10.5199 14.3565 10.1471 14.4579 9.74981C14.5594 9.35255 14.58 8.93896 14.5186 8.53358C14.4572 8.12819 14.3151 7.73926 14.1005 7.38985C13.886 7.04044 13.6035 6.73767 13.2698 6.4995C13.8007 6.12413 14.1984 5.58947 14.4053 4.97298C14.6121 4.35648 14.6173 3.69015 14.4201 3.0705C14.2229 2.45085 13.8336 1.91005 13.3086 1.52642C12.7835 1.1428 12.15 0.936271 11.4998 0.936753L6.50025 0.937503ZM8.4375 10.9373H6.50025C6.24585 10.9373 5.99393 10.8871 5.7589 10.7898C5.52386 10.6924 5.3103 10.5497 5.13041 10.3698C4.95052 10.19 4.80782 9.97639 4.71046 9.74136C4.61311 9.50632 4.563 9.25441 4.563 9C4.563 8.7456 4.61311 8.49369 4.71046 8.25865C4.80782 8.02361 4.95052 7.81005 5.13041 7.63016C5.3103 7.45027 5.52386 7.30757 5.7589 7.21022C5.99393 7.11286 6.24585 7.06275 6.50025 7.06275H8.4375V9V10.9373ZM6.50025 5.93775H8.4375V2.0625H6.50025C5.98636 2.0625 5.49352 2.26665 5.13014 2.63002C4.76677 2.9934 4.56262 3.48624 4.56262 4.00013C4.56262 4.51402 4.76677 5.00686 5.13014 5.37024C5.49352 5.73361 5.98636 5.93775 6.50025 5.93775ZM13.4377 3.99975C13.4379 4.51328 13.2342 5.00588 12.8714 5.36929C12.5086 5.73269 12.0163 5.93716 11.5027 5.93775H9.5625V2.0625H11.5005C11.7549 2.0625 12.0068 2.11261 12.2419 2.20997C12.4769 2.30732 12.6905 2.45002 12.8703 2.62991C13.0502 2.8098 13.1929 3.02336 13.2903 3.2584C13.3876 3.49344 13.4377 3.74535 13.4377 3.99975ZM9.5625 8.99775C9.5631 8.48474 9.76715 7.99291 10.1299 7.63016C10.4927 7.2674 10.9845 7.06335 11.4975 7.06275H11.502C11.885 7.0632 12.2592 7.17714 12.5774 7.39018C12.8957 7.60321 13.1436 7.90579 13.29 8.25969C13.4363 8.61358 13.4745 9.00291 13.3997 9.37849C13.3248 9.75407 13.1404 10.0991 12.8696 10.3698C12.5988 10.6406 12.2538 10.8251 11.8782 10.8999C11.5027 10.9747 11.1133 10.9366 10.7594 10.7902C10.4055 10.6439 10.103 10.3959 9.88992 10.0777C9.67688 9.75945 9.56294 9.38521 9.5625 9.00225V8.99775ZM6.50025 12.0623C6.11713 12.0623 5.74261 12.1759 5.42405 12.3887C5.10549 12.6015 4.85718 12.904 4.71054 13.258C4.56389 13.6119 4.52548 14.0014 4.60017 14.3772C4.67486 14.7529 4.85929 15.0981 5.13014 15.3691C5.401 15.64 5.74611 15.8246 6.12185 15.8994C6.49759 15.9743 6.88708 15.936 7.24108 15.7895C7.59508 15.643 7.89769 15.3948 8.11065 15.0763C8.32361 14.7578 8.43735 14.3834 8.4375 14.0003V12.0623H6.50025Z" fill="white"/>
</svg>
