<svg width="18" height="18" viewBox="0 0 18 18" fill="none" xmlns="http://www.w3.org/2000/svg">
<path fill-rule="evenodd" clip-rule="evenodd" d="M2.44029 13.8574C2.19903 14.0987 1.87182 14.2342 1.53064 14.2342C1.18946 14.2342 0.862252 14.0987 0.621 13.8574C0.379747 13.6162 0.244213 13.289 0.244213 12.9478C0.244213 12.6066 0.379747 12.2794 0.621 12.0381L4.90629 7.75414L4.91529 7.74514C5.26541 7.40221 5.73598 7.21015 6.22607 7.21015C6.71616 7.21015 7.18673 7.40221 7.53686 7.74514L7.54586 7.75414L9.73286 9.94114L12.7504 6.74999L11.4133 5.41285C11.2786 5.278 11.1869 5.10625 11.1498 4.91931C11.1126 4.73237 11.1317 4.53862 11.2046 4.36252C11.2775 4.18642 11.401 4.03589 11.5594 3.92992C11.7178 3.82395 11.9041 3.7673 12.0947 3.76714H16.7901C17.0459 3.76714 17.2912 3.86873 17.472 4.04957C17.6528 4.23041 17.7544 4.47568 17.7544 4.73142V9.42685C17.7543 9.61744 17.6976 9.80372 17.5916 9.96214C17.4857 10.1206 17.3351 10.244 17.159 10.3169C16.9829 10.3898 16.7892 10.4089 16.6023 10.3718C16.4153 10.3347 16.2436 10.243 16.1087 10.1083L14.5697 8.56799L11.0931 12.2464C10.9214 12.4237 10.7162 12.5653 10.4895 12.6631C10.2628 12.7608 10.0191 12.8128 9.77222 12.8161C9.52537 12.8193 9.28031 12.7737 9.05114 12.6819C8.82198 12.5901 8.61321 12.4539 8.43686 12.2811L8.42786 12.2721L6.22543 10.071L2.44029 13.8574Z" fill="white"/>
</svg>
