<svg width="13" height="13" viewBox="0 0 13 13" fill="none" xmlns="http://www.w3.org/2000/svg">
<path id="Vector" d="M6.5 0C2.91041 0 0 2.91041 0 6.5C0 7.995 0.505408 9.37327 1.35439 10.4716V10.5711C1.37561 10.5645 1.39551 10.5579 1.41673 10.5499C2.60796 12.0436 4.44255 13 6.5 13C8.59061 13 10.4504 12.0131 11.639 10.4809C11.6416 10.4822 11.643 10.4822 11.6456 10.4836V10.473C12.4946 9.37327 13 7.995 13 6.5C13 2.91041 10.0896 0 6.5 0ZM12.4521 6.22939H9.20347C9.18622 5.47194 9.09602 4.70255 8.92755 3.9199C9.85745 3.80184 10.7436 3.6148 11.57 3.36806C12.0887 4.2051 12.4057 5.18276 12.4521 6.22939ZM4.33643 6.22939C4.355 5.47459 4.44786 4.71847 4.61765 3.95306C5.27163 4.02469 5.94551 4.06316 6.63531 4.06316C7.23225 4.06316 7.81725 4.03398 8.38765 3.97959C8.55347 4.73704 8.645 5.48388 8.66357 6.22939H4.33643ZM8.66357 6.77061C8.64367 7.60367 8.53092 8.43806 8.32663 9.28572C7.77612 9.23531 7.21102 9.20878 6.63531 9.20878C5.96806 9.20878 5.31408 9.24459 4.68 9.31225C4.47174 8.45531 4.35765 7.61296 4.33643 6.77194H8.66357V6.77061ZM11.253 2.9051C10.4849 3.12265 9.66245 3.28714 8.80286 3.39061C8.57204 2.50714 8.24173 1.6051 7.80133 0.68449C9.20082 0.996225 10.4146 1.8001 11.253 2.9051ZM6.5 0.541224C6.73347 0.541224 6.96429 0.55449 7.19112 0.58102C7.65806 1.56531 8.01357 2.5151 8.25898 3.44765C7.72969 3.49541 7.18714 3.51929 6.63531 3.51929C5.99061 3.51929 5.35918 3.48612 4.74765 3.42112C4.99306 2.49653 5.34592 1.55469 5.80888 0.579694C6.03571 0.555816 6.26653 0.541224 6.5 0.541224ZM5.19867 0.68449C4.76357 1.59449 4.43592 2.48459 4.20776 3.35745C3.3601 3.24204 2.55225 3.06694 1.79878 2.8401C2.63316 1.76827 3.82704 0.989592 5.19867 0.68449ZM1.47378 3.29908C2.28694 3.55643 3.16112 3.75541 4.08041 3.88541C3.90663 4.68 3.8151 5.46133 3.79653 6.22939H0.547857C0.595612 5.15357 0.929898 4.15204 1.47378 3.29908ZM1.625 9.9251C0.990918 9.02439 0.600918 7.94194 0.547857 6.77061H3.79653C3.81643 7.65541 3.93449 8.52429 4.13878 9.37725C3.25531 9.50061 2.41163 9.685 1.625 9.9251ZM1.97653 10.3774C2.69949 10.1705 3.4702 10.01 4.27673 9.90255C4.50888 10.7184 4.81796 11.5222 5.19735 12.3142C3.92122 12.0316 2.79898 11.3365 1.97653 10.3774ZM5.80888 12.419C5.38969 11.5368 5.06071 10.6812 4.82061 9.84153C5.40959 9.78184 6.01714 9.75133 6.63663 9.75133C7.16459 9.75133 7.68194 9.77388 8.18867 9.81765C7.94592 10.664 7.61429 11.5276 7.19112 12.419C6.96429 12.4455 6.73347 12.4588 6.5 12.4588C6.26653 12.4588 6.03571 12.4442 5.80888 12.419ZM7.80133 12.3155C8.18602 11.513 8.49908 10.6985 8.73123 9.87071C9.55102 9.96622 10.3377 10.1174 11.0752 10.3164C10.2488 11.3073 9.10531 12.025 7.80133 12.3155ZM11.4214 9.8601C10.6202 9.62929 9.76459 9.45418 8.86918 9.34408C9.06949 8.50041 9.1849 7.64347 9.20347 6.77061H12.4521C12.4004 7.91408 12.0277 8.97265 11.4214 9.8601Z" fill="white"/>
</svg>
